<svg width="24.000000" height="24.000000" viewBox="0 0 24 24" fill="none" xmlns="http://www.w3.org/2000/svg" xmlns:xlink="http://www.w3.org/1999/xlink">
	<desc>
			Created with Pixso.
	</desc>
	<defs/>
	<rect id="00 General / 01 Icons / 02 Common / 09 Statistics" width="24.000000" height="24.000000" fill="#FFFFFF" fill-opacity="0"/>
	<mask id="mask_1_186" fill="white">
		<path id="color" d="M18 3C19.1046 3 20 3.89545 20 5L20 17L3 17L3 13C3 11.8954 3.89539 11 5 11L8 11L8 9C8 7.89545 8.89539 7 10 7L13 7L13 5C13 3.89545 13.8954 3 15 3L18 3ZM15 5L18 5L18 15L15 15L15 5ZM13 9L10 9L10 15L13 15L13 9ZM5 13L8 13L8 15L5 15L5 13ZM18.7858 19C19.4563 19 20 19.4477 20 20C20 20.5523 19.4563 21 18.7858 21L4.21423 21C3.5437 21 3 20.5523 3 20C3 19.4477 3.5437 19 4.21423 19L18.7858 19Z" clip-rule="evenodd" fill="" fill-opacity="1.000000" fill-rule="evenodd"/>
	</mask>
	<path id="color" d="M18 3C19.1046 3 20 3.89545 20 5L20 17L3 17L3 13C3 11.8954 3.89539 11 5 11L8 11L8 9C8 7.89545 8.89539 7 10 7L13 7L13 5C13 3.89545 13.8954 3 15 3L18 3ZM15 5L18 5L18 15L15 15L15 5ZM13 9L10 9L10 15L13 15L13 9ZM5 13L8 13L8 15L5 15L5 13ZM18.7858 19C19.4563 19 20 19.4477 20 20C20 20.5523 19.4563 21 18.7858 21L4.21423 21C3.5437 21 3 20.5523 3 20C3 19.4477 3.5437 19 4.21423 19L18.7858 19Z" clip-rule="evenodd" fill="#7E84A3" fill-opacity="1.000000" fill-rule="evenodd" mask="url(#mask_1_186)"/>
	<path id="color" d="" fill="#979797" fill-opacity="0.000000" fill-rule="nonzero"/>
</svg>
