<svg width="24.000000" height="24.000000" viewBox="0 0 24 24" fill="none" xmlns="http://www.w3.org/2000/svg" xmlns:xlink="http://www.w3.org/1999/xlink">
	<desc>
			Created with Pixso.
	</desc>
	<defs/>
	<mask id="mask_1_242" fill="white">
		<path id="color" d="M13.3287 3.51556C13.3873 3.56763 13.4427 3.62311 13.4949 3.68164L19.4949 10.4316C19.8202 10.7978 20 11.2706 20 11.7604L20 19C20 20.1046 19.1046 21 18 21L6 21C4.89539 21 4 20.1046 4 19L4 11.7604C4 11.2706 4.17981 10.7978 4.50513 10.4316L10.5051 3.68164C11.239 2.85608 12.5032 2.78174 13.3287 3.51556ZM11 19L13 19L13 15L11 15L11 19ZM15 19L15 14C15 13.4477 14.5522 13 14 13L10 13C9.44775 13 9 13.4477 9 14L9 19L6 19L6 11.7604L12 5.01038L18 11.7604L18 19L15 19Z" clip-rule="evenodd" fill="" fill-opacity="1.000000" fill-rule="evenodd"/>
	</mask>
	<path id="color" d="M13.3287 3.51556C13.3873 3.56763 13.4427 3.62311 13.4949 3.68164L19.4949 10.4316C19.8202 10.7978 20 11.2706 20 11.7604L20 19C20 20.1046 19.1046 21 18 21L6 21C4.89539 21 4 20.1046 4 19L4 11.7604C4 11.2706 4.17981 10.7978 4.50513 10.4316L10.5051 3.68164C11.239 2.85608 12.5032 2.78174 13.3287 3.51556ZM11 19L13 19L13 15L11 15L11 19ZM15 19L15 14C15 13.4477 14.5522 13 14 13L10 13C9.44775 13 9 13.4477 9 14L9 19L6 19L6 11.7604L12 5.01038L18 11.7604L18 19L15 19Z" clip-rule="evenodd" fill="#7E84A3" fill-opacity="1.000000" fill-rule="evenodd" mask="url(#mask_1_242)"/>
	<path id="color" d="" fill="#979797" fill-opacity="0.000000" fill-rule="nonzero"/>
</svg>
