<svg width="24.000000" height="24.000000" viewBox="0 0 24 24" fill="none" xmlns="http://www.w3.org/2000/svg" xmlns:xlink="http://www.w3.org/1999/xlink">
	<desc>
			Created with Pixso.
	</desc>
	<defs/>
	<rect id="00 General / 01 Icons / 02 Common / 32 List" width="24.000000" height="24.000000" fill="#FFFFFF" fill-opacity="0"/>
	<mask id="mask_1_227" fill="white">
		<path id="color" d="M6 7L6 9L4 9L4 7L6 7ZM20 8C20 7.44769 19.5522 7 19 7L9 7C8.44775 7 8 7.44769 8 8C8 8.55231 8.44775 9 9 9L19 9C19.5522 9 20 8.55231 20 8ZM6 11L6 13L4 13L4 11L6 11ZM20 12C20 11.4477 19.5522 11 19 11L9 11C8.44775 11 8 11.4477 8 12C8 12.5523 8.44775 13 9 13L19 13C19.5522 13 20 12.5523 20 12ZM6 17L6 15L4 15L4 17L6 17ZM20 16C20 15.4477 19.5522 15 19 15L9 15C8.44775 15 8 15.4477 8 16C8 16.5523 8.44775 17 9 17L19 17C19.5522 17 20 16.5523 20 16Z" clip-rule="evenodd" fill="" fill-opacity="1.000000" fill-rule="evenodd"/>
	</mask>
	<path id="color" d="M6 7L6 9L4 9L4 7L6 7ZM20 8C20 7.44769 19.5522 7 19 7L9 7C8.44775 7 8 7.44769 8 8C8 8.55231 8.44775 9 9 9L19 9C19.5522 9 20 8.55231 20 8ZM6 11L6 13L4 13L4 11L6 11ZM20 12C20 11.4477 19.5522 11 19 11L9 11C8.44775 11 8 11.4477 8 12C8 12.5523 8.44775 13 9 13L19 13C19.5522 13 20 12.5523 20 12ZM6 17L6 15L4 15L4 17L6 17ZM20 16C20 15.4477 19.5522 15 19 15L9 15C8.44775 15 8 15.4477 8 16C8 16.5523 8.44775 17 9 17L19 17C19.5522 17 20 16.5523 20 16Z" clip-rule="evenodd" fill="#7E84A3" fill-opacity="1.000000" fill-rule="evenodd" mask="url(#mask_1_227)"/>
	<path id="color" d="" fill="#979797" fill-opacity="0.000000" fill-rule="nonzero"/>
</svg>
