<svg width="24.000000" height="24.000000" viewBox="0 0 24 24" fill="none" xmlns="http://www.w3.org/2000/svg" xmlns:xlink="http://www.w3.org/1999/xlink">
	<desc>
			Created with Pixso.
	</desc>
	<defs/>
	<rect id="00 General / 01 Icons / 04 Communication / 04 Chat" width="24.000000" height="24.000000" fill="#FFFFFF" fill-opacity="0"/>
	<mask id="mask_1_125" fill="white">
		<path id="color" d="M19 3C20.1046 3 21 3.89545 21 5L21 17C21 18.1046 20.1046 19 19 19L9 19L3 22L3 5C3 3.89545 3.89539 3 5 3L19 3ZM5 5L19 5L19 17L8.44604 17L5 18.468L5 5ZM17 10L17 8L7 8L7 10L17 10ZM11 12L11 14L7 14L7 12L11 12Z" clip-rule="evenodd" fill="" fill-opacity="1.000000" fill-rule="evenodd"/>
	</mask>
	<path id="color" d="M19 3C20.1046 3 21 3.89545 21 5L21 17C21 18.1046 20.1046 19 19 19L9 19L3 22L3 5C3 3.89545 3.89539 3 5 3L19 3ZM5 5L19 5L19 17L8.44604 17L5 18.468L5 5ZM17 10L17 8L7 8L7 10L17 10ZM11 12L11 14L7 14L7 12L11 12Z" clip-rule="evenodd" fill="#7E84A3" fill-opacity="1.000000" fill-rule="evenodd" mask="url(#mask_1_125)"/>
	<path id="color" d="" fill="#979797" fill-opacity="0.000000" fill-rule="nonzero"/>
</svg>
