<svg width="24.000000" height="24.000000" viewBox="0 0 24 24" fill="none" xmlns="http://www.w3.org/2000/svg" xmlns:xlink="http://www.w3.org/1999/xlink">
	<desc>
			Created with Pixso.
	</desc>
	<defs/>
	<rect id="00 General / 01 Icons / 02 Common / 03 Users" width="24.000000" height="24.000000" fill="#FFFFFF" fill-opacity="0"/>
	<mask id="mask_1_197" fill="white">
		<path id="color" d="M8 4C10.2091 4 12 5.79083 12 8C12 10.2092 10.2091 12 8 12C5.79089 12 4 10.2092 4 8C4 5.79083 5.79089 4 8 4ZM20 7C20 5.34314 18.6569 4 17 4C15.3431 4 14 5.34314 14 7C14 8.65686 15.3431 10 17 10C18.6569 10 20 8.65686 20 7ZM8 6C6.89539 6 6 6.89545 6 8C6 9.10455 6.89539 10 8 10C9.10461 10 10 9.10455 10 8C10 6.89545 9.10461 6 8 6ZM16 6L18 6L18 8L16 8L16 6ZM22.0001 13.6825C20.9253 12.0656 19.087 11 17 11C14.6768 11 12.662 12.3204 11.6661 14.2518C10.6509 13.4658 9.3783 13 8 13C4.68628 13 2 15.6863 2 19L2 20L14.0215 20L13.999 18.952L14 17L21.9993 17L22.0001 13.6825ZM13.6606 14.7973C14.3763 13.7144 15.6047 13 17 13L17.2007 13.0049C18.5304 13.0708 19.6927 13.7872 20.3707 14.845L20.464 15L13.535 15L13.6606 14.7973ZM8 15C6.26208 15 4.78296 16.1084 4.23108 17.6569L4.16931 17.8447L4.12598 18L11.873 18L11.8362 17.8625C11.3827 16.3295 10.0355 15.1846 8.40515 15.0203L8.19983 15.0049L8 15Z" clip-rule="evenodd" fill="" fill-opacity="1.000000" fill-rule="evenodd"/>
	</mask>
	<path id="color" d="M8 4C10.2091 4 12 5.79083 12 8C12 10.2092 10.2091 12 8 12C5.79089 12 4 10.2092 4 8C4 5.79083 5.79089 4 8 4ZM20 7C20 5.34314 18.6569 4 17 4C15.3431 4 14 5.34314 14 7C14 8.65686 15.3431 10 17 10C18.6569 10 20 8.65686 20 7ZM8 6C6.89539 6 6 6.89545 6 8C6 9.10455 6.89539 10 8 10C9.10461 10 10 9.10455 10 8C10 6.89545 9.10461 6 8 6ZM16 6L18 6L18 8L16 8L16 6ZM22.0001 13.6825C20.9253 12.0656 19.087 11 17 11C14.6768 11 12.662 12.3204 11.6661 14.2518C10.6509 13.4658 9.3783 13 8 13C4.68628 13 2 15.6863 2 19L2 20L14.0215 20L13.999 18.952L14 17L21.9993 17L22.0001 13.6825ZM13.6606 14.7973C14.3763 13.7144 15.6047 13 17 13L17.2007 13.0049C18.5304 13.0708 19.6927 13.7872 20.3707 14.845L20.464 15L13.535 15L13.6606 14.7973ZM8 15C6.26208 15 4.78296 16.1084 4.23108 17.6569L4.16931 17.8447L4.12598 18L11.873 18L11.8362 17.8625C11.3827 16.3295 10.0355 15.1846 8.40515 15.0203L8.19983 15.0049L8 15Z" clip-rule="evenodd" fill="#7E84A3" fill-opacity="1.000000" fill-rule="evenodd" mask="url(#mask_1_197)"/>
	<path id="color" d="" fill="#979797" fill-opacity="0.000000" fill-rule="nonzero"/>
</svg>
