<svg width="24.000000" height="24.000000" viewBox="0 0 24 24" fill="none" xmlns="http://www.w3.org/2000/svg" xmlns:xlink="http://www.w3.org/1999/xlink">
	<desc>
			Created with Pixso.
	</desc>
	<defs/>
	<rect id="00 General / 01 Icons / 02 Common / 02 User" width="24.000000" height="24.000000" fill="#FFFFFF" fill-opacity="0"/>
	<mask id="mask_1_157" fill="white">
		<path id="color" d="M12 3C14.2091 3 16 4.79086 16 7C16 9.20914 14.2091 11 12 11C9.79089 11 8 9.20914 8 7C8 4.79086 9.79089 3 12 3ZM10 7C10 5.89542 10.8954 5 12 5C13.1046 5 14 5.89542 14 7C14 8.10458 13.1046 9 12 9C10.8954 9 10 8.10458 10 7ZM19.9962 19.7508C19.8645 15.4478 16.335 12 12 12C7.58167 12 4 15.5817 4 20L4 21L20 21L20 20L19.9962 19.7508ZM6.14856 18.667C6.75476 15.9948 9.14441 14 12 14L12.225 14.0042L12.4739 14.0184C15.1969 14.2312 17.4094 16.2618 17.8989 18.8976L17.915 19L6.08398 19L6.10107 18.8976L6.14856 18.667Z" clip-rule="evenodd" fill="" fill-opacity="1.000000" fill-rule="evenodd"/>
	</mask>
	<path id="color" d="M12 3C14.2091 3 16 4.79086 16 7C16 9.20914 14.2091 11 12 11C9.79089 11 8 9.20914 8 7C8 4.79086 9.79089 3 12 3ZM10 7C10 5.89542 10.8954 5 12 5C13.1046 5 14 5.89542 14 7C14 8.10458 13.1046 9 12 9C10.8954 9 10 8.10458 10 7ZM19.9962 19.7508C19.8645 15.4478 16.335 12 12 12C7.58167 12 4 15.5817 4 20L4 21L20 21L20 20L19.9962 19.7508ZM6.14856 18.667C6.75476 15.9948 9.14441 14 12 14L12.225 14.0042L12.4739 14.0184C15.1969 14.2312 17.4094 16.2618 17.8989 18.8976L17.915 19L6.08398 19L6.10107 18.8976L6.14856 18.667Z" clip-rule="evenodd" fill="#7E84A3" fill-opacity="1.000000" fill-rule="evenodd" mask="url(#mask_1_157)"/>
	<path id="color" d="" fill="#979797" fill-opacity="0.000000" fill-rule="nonzero"/>
</svg>
