<svg width="24.000000" height="24.000000" viewBox="0 0 24 24" fill="none" xmlns="http://www.w3.org/2000/svg" xmlns:xlink="http://www.w3.org/1999/xlink">
	<desc>
			Created with Pixso.
	</desc>
	<defs/>
	<rect id="00 General / 01 Icons / 06 Messages / 03 Question" width="24.000000" height="24.000000" fill="#FFFFFF" fill-opacity="0"/>
	<mask id="mask_1_135" fill="white">
		<path id="color" d="M22 12C22 6.47714 17.5228 2 12 2C6.47717 2 2 6.47714 2 12C2 17.5229 6.47717 22 12 22C17.5228 22 22 17.5229 22 12ZM4 12C4 7.58173 7.58167 4 12 4C16.4183 4 20 7.58173 20 12C20 16.4183 16.4183 20 12 20C7.58167 20 4 16.4183 4 12ZM16 10C16 7.79086 14.2091 6 12 6C9.79089 6 8 7.79086 8 10L10 10L10.0055 9.85074C10.0818 8.81589 10.9457 8 12 8C13.1046 8 14 8.89542 14 10C14 11.1046 13.1046 12 12 12C11.4478 12 11 12.4477 11 13L11 14C11 14.5523 11.4478 15 12 15C12.5522 15 13 14.5523 13 14L13 13.874C14.7252 13.4299 16 11.8638 16 10ZM13 18L13 16L11 16L11 18L13 18Z" clip-rule="evenodd" fill="" fill-opacity="1.000000" fill-rule="evenodd"/>
	</mask>
	<path id="color" d="M22 12C22 6.47714 17.5228 2 12 2C6.47717 2 2 6.47714 2 12C2 17.5229 6.47717 22 12 22C17.5228 22 22 17.5229 22 12ZM4 12C4 7.58173 7.58167 4 12 4C16.4183 4 20 7.58173 20 12C20 16.4183 16.4183 20 12 20C7.58167 20 4 16.4183 4 12ZM16 10C16 7.79086 14.2091 6 12 6C9.79089 6 8 7.79086 8 10L10 10L10.0055 9.85074C10.0818 8.81589 10.9457 8 12 8C13.1046 8 14 8.89542 14 10C14 11.1046 13.1046 12 12 12C11.4478 12 11 12.4477 11 13L11 14C11 14.5523 11.4478 15 12 15C12.5522 15 13 14.5523 13 14L13 13.874C14.7252 13.4299 16 11.8638 16 10ZM13 18L13 16L11 16L11 18L13 18Z" clip-rule="evenodd" fill="#7E84A3" fill-opacity="1.000000" fill-rule="evenodd" mask="url(#mask_1_135)"/>
	<path id="color" d="" fill="#979797" fill-opacity="0.000000" fill-rule="nonzero"/>
</svg>
