<svg width="24.000000" height="24.000000" viewBox="0 0 24 24" fill="none" xmlns="http://www.w3.org/2000/svg" xmlns:xlink="http://www.w3.org/1999/xlink">
	<desc>
			Created with Pixso.
	</desc>
	<defs/>
	<mask id="mask_1_113" fill="white">
		<path id="color" d="M10.5 3C14.6422 3 18 6.35785 18 10.5C18 12.2101 17.4276 13.7866 16.464 15.0483L19.7071 18.2929C20.0977 18.6834 20.0977 19.3166 19.7071 19.7071C19.3466 20.0676 18.7794 20.0953 18.3871 19.7903L18.2929 19.7071L15.0483 16.464C13.7866 17.4276 12.2101 18 10.5 18C6.35785 18 3 14.6422 3 10.5C3 6.35785 6.35785 3 10.5 3ZM5 10.5C5 7.46246 7.46246 5 10.5 5C13.5375 5 16 7.46246 16 10.5C16 11.8511 15.5128 13.0885 14.7041 14.0446C14.5536 14.091 14.412 14.1738 14.2929 14.2929C14.1738 14.412 14.091 14.5536 14.046 14.7045C13.0885 15.5128 11.8511 16 10.5 16C7.46246 16 5 13.5375 5 10.5Z" clip-rule="evenodd" fill="" fill-opacity="1.000000" fill-rule="evenodd"/>
	</mask>
	<path id="color" d="M10.5 3C14.6422 3 18 6.35785 18 10.5C18 12.2101 17.4276 13.7866 16.464 15.0483L19.7071 18.2929C20.0977 18.6834 20.0977 19.3166 19.7071 19.7071C19.3466 20.0676 18.7794 20.0953 18.3871 19.7903L18.2929 19.7071L15.0483 16.464C13.7866 17.4276 12.2101 18 10.5 18C6.35785 18 3 14.6422 3 10.5C3 6.35785 6.35785 3 10.5 3ZM5 10.5C5 7.46246 7.46246 5 10.5 5C13.5375 5 16 7.46246 16 10.5C16 11.8511 15.5128 13.0885 14.7041 14.0446C14.5536 14.091 14.412 14.1738 14.2929 14.2929C14.1738 14.412 14.091 14.5536 14.046 14.7045C13.0885 15.5128 11.8511 16 10.5 16C7.46246 16 5 13.5375 5 10.5Z" clip-rule="evenodd" fill="#7E84A3" fill-opacity="1.000000" fill-rule="evenodd" mask="url(#mask_1_113)"/>
	<path id="color" d="" fill="#979797" fill-opacity="0.000000" fill-rule="nonzero"/>
</svg>
