<svg width="24.000000" height="24.000000" viewBox="0 0 24 24" fill="none" xmlns="http://www.w3.org/2000/svg" xmlns:xlink="http://www.w3.org/1999/xlink">
	<desc>
			Created with Pixso.
	</desc>
	<defs/>
	<rect id="00 General / 01 Icons / 02 Common / 01 Settings" width="24.000000" height="24.000000" fill="#FFFFFF" fill-opacity="0"/>
	<mask id="mask_1_167" fill="white">
		<path id="color" d="M13.5 2L16 5L20 5.5L22 8.5L20 12L22 15.5L20 18.5L16 19L13.5 22L10.5 22L8 19L4 18.5L2 15.5L4 12L2 8.5L4 5.5L8 5L10.5 2L13.5 2ZM11.437 3.99899L12.562 3.99899L14.9688 6.88666L18.843 7.37L19.649 8.58099L17.6965 12L19.649 15.418L18.843 16.629L14.9688 17.1133L12.563 19.999L11.436 19.999L9.03125 17.1133L5.15601 16.629L4.34998 15.418L6.30347 12L4.34998 8.58099L5.15601 7.37L9.03125 6.88666L11.437 3.99899ZM12 8C14.2091 8 16 9.79086 16 12C16 14.2091 14.2091 16 12 16C9.79089 16 8 14.2091 8 12C8 9.79086 9.79089 8 12 8ZM10 12C10 10.8954 10.8954 10 12 10C13.1046 10 14 10.8954 14 12C14 13.1046 13.1046 14 12 14C10.8954 14 10 13.1046 10 12Z" clip-rule="evenodd" fill="" fill-opacity="1.000000" fill-rule="evenodd"/>
	</mask>
	<path id="color" d="M13.5 2L16 5L20 5.5L22 8.5L20 12L22 15.5L20 18.5L16 19L13.5 22L10.5 22L8 19L4 18.5L2 15.5L4 12L2 8.5L4 5.5L8 5L10.5 2L13.5 2ZM11.437 3.99899L12.562 3.99899L14.9688 6.88666L18.843 7.37L19.649 8.58099L17.6965 12L19.649 15.418L18.843 16.629L14.9688 17.1133L12.563 19.999L11.436 19.999L9.03125 17.1133L5.15601 16.629L4.34998 15.418L6.30347 12L4.34998 8.58099L5.15601 7.37L9.03125 6.88666L11.437 3.99899ZM12 8C14.2091 8 16 9.79086 16 12C16 14.2091 14.2091 16 12 16C9.79089 16 8 14.2091 8 12C8 9.79086 9.79089 8 12 8ZM10 12C10 10.8954 10.8954 10 12 10C13.1046 10 14 10.8954 14 12C14 13.1046 13.1046 14 12 14C10.8954 14 10 13.1046 10 12Z" clip-rule="evenodd" fill="#7E84A3" fill-opacity="1.000000" fill-rule="evenodd" mask="url(#mask_1_167)"/>
	<path id="color" d="" fill="#979797" fill-opacity="0.000000" fill-rule="nonzero"/>
</svg>
