<svg width="24.000000" height="24.000000" viewBox="0 0 24 24" fill="none" xmlns="http://www.w3.org/2000/svg" xmlns:xlink="http://www.w3.org/1999/xlink">
	<desc>
			Created with Pixso.
	</desc>
	<defs/>
	<rect id="00 General / 01 Icons / 02 Common / 11 Star" width="24.000000" height="24.000000" fill="#FFFFFF" fill-opacity="0"/>
	<mask id="mask_1_178" fill="white">
		<path id="color" d="M12.3931 3.08026C12.6262 3.17944 12.8121 3.36304 12.9126 3.59332L14.9554 8.27716L20.098 8.74817C20.6444 8.79822 21.0464 9.27618 20.9957 9.81573C20.9723 10.0654 20.8529 10.2968 20.6621 10.4623L16.782 13.828L17.9175 18.8029C18.0382 19.3315 17.702 19.8567 17.1666 19.9758C16.9188 20.0309 16.6592 19.9904 16.4408 19.8623L12 17.2586L7.5592 19.8623C7.08728 20.139 6.47766 19.9855 6.19739 19.5196C6.06775 19.304 6.02661 19.0475 6.0824 18.8029L7.21802 13.828L3.33789 10.4623C2.92554 10.1047 2.88501 9.48468 3.24719 9.07758C3.41479 8.88916 3.64905 8.7713 3.90198 8.74817L9.04456 8.27716L11.0873 3.59332C11.3043 3.09564 11.8889 2.86591 12.3931 3.08026ZM12 6.46161L13.5968 10.1236L17.6173 10.4914L14.5837 13.1227L15.4709 17.0114L12 14.9764L8.52795 17.0114L9.41614 13.1227L6.38159 10.4914L10.4031 10.1236L12 6.46161Z" clip-rule="evenodd" fill="" fill-opacity="1.000000" fill-rule="evenodd"/>
	</mask>
	<path id="color" d="M12.3931 3.08026C12.6262 3.17944 12.8121 3.36304 12.9126 3.59332L14.9554 8.27716L20.098 8.74817C20.6444 8.79822 21.0464 9.27618 20.9957 9.81573C20.9723 10.0654 20.8529 10.2968 20.6621 10.4623L16.782 13.828L17.9175 18.8029C18.0382 19.3315 17.702 19.8567 17.1666 19.9758C16.9188 20.0309 16.6592 19.9904 16.4408 19.8623L12 17.2586L7.5592 19.8623C7.08728 20.139 6.47766 19.9855 6.19739 19.5196C6.06775 19.304 6.02661 19.0475 6.0824 18.8029L7.21802 13.828L3.33789 10.4623C2.92554 10.1047 2.88501 9.48468 3.24719 9.07758C3.41479 8.88916 3.64905 8.7713 3.90198 8.74817L9.04456 8.27716L11.0873 3.59332C11.3043 3.09564 11.8889 2.86591 12.3931 3.08026ZM12 6.46161L13.5968 10.1236L17.6173 10.4914L14.5837 13.1227L15.4709 17.0114L12 14.9764L8.52795 17.0114L9.41614 13.1227L6.38159 10.4914L10.4031 10.1236L12 6.46161Z" clip-rule="evenodd" fill="#7E84A3" fill-opacity="1.000000" fill-rule="evenodd" mask="url(#mask_1_178)"/>
	<path id="color" d="" fill="#979797" fill-opacity="0.000000" fill-rule="nonzero"/>
</svg>
