<svg width="24.000000" height="24.000000" viewBox="0 0 24 24" fill="none" xmlns="http://www.w3.org/2000/svg" xmlns:xlink="http://www.w3.org/1999/xlink">
	<desc>
			Created with Pixso.
	</desc>
	<defs/>
	<rect id="00 General / 01 Icons / 05 Finance / 08 Tag" width="24.000000" height="24.000000" fill="#FFFFFF" fill-opacity="0"/>
	<mask id="mask_1_218" fill="white">
		<path id="color" d="M13.1377 3.0119C12.5498 2.94659 11.9641 3.15204 11.5459 3.57031L2.57031 12.5459C1.80994 13.3063 1.80994 14.5391 2.57031 15.2994L8.70056 21.4297C9.46094 22.1901 10.6937 22.1901 11.4541 21.4297L20.4297 12.4541C20.8479 12.0359 21.0533 11.4502 20.988 10.8623L21 3L13.1377 3.0119ZM13 5L3.94702 13.9227L10.0773 20.053L19 11L19 5L13 5ZM16 10L14 8L12 10L14 12L16 10Z" clip-rule="evenodd" fill="" fill-opacity="1.000000" fill-rule="evenodd"/>
	</mask>
	<path id="color" d="M13.1377 3.0119C12.5498 2.94659 11.9641 3.15204 11.5459 3.57031L2.57031 12.5459C1.80994 13.3063 1.80994 14.5391 2.57031 15.2994L8.70056 21.4297C9.46094 22.1901 10.6937 22.1901 11.4541 21.4297L20.4297 12.4541C20.8479 12.0359 21.0533 11.4502 20.988 10.8623L21 3L13.1377 3.0119ZM13 5L3.94702 13.9227L10.0773 20.053L19 11L19 5L13 5ZM16 10L14 8L12 10L14 12L16 10Z" clip-rule="evenodd" fill="#7E84A3" fill-opacity="1.000000" fill-rule="evenodd" mask="url(#mask_1_218)"/>
	<path id="color" d="" fill="#979797" fill-opacity="0.000000" fill-rule="nonzero"/>
</svg>
