<svg width="42.000000" height="38.000000" viewBox="0 0 42 38" fill="none" xmlns="http://www.w3.org/2000/svg" xmlns:xlink="http://www.w3.org/1999/xlink">
	<desc>
			Created with Pixso.
	</desc>
	<defs/>
	<path id="Vector" d="M28.47 18.9C28.38 18.97 28.33 18.99 28.32 18.95C27.47 18.94 26.62 18.93 25.77 18.93C24.57 18.93 23.72 18.89 23.22 18.81C21.28 18.52 19.62 17.71 18.26 16.4C15.46 13.7 14.63 10.33 15.75 6.27C15.88 6.03 16 5.78 16.12 5.52C17.44 2.67 19.86 0.82 22.93 0.14C23.3 0.05 23.94 0.01 24.85 0.01C29.16 -0.01 33.43 -0.01 37.65 0C37.82 0 37.86 0.07 37.79 0.22L28.47 18.9Z" fill="#6C72FF" fill-opacity="1.000000" fill-rule="nonzero"/>
	<path id="Vector" d="M15.75 6.27C14.63 10.32 15.46 13.7 18.26 16.4C19.62 17.71 21.28 18.52 23.22 18.81C23.72 18.89 24.57 18.93 25.77 18.93C26.62 18.93 27.47 18.94 28.32 18.95L18.89 38L0.1 37.99C0.08 37.99 0.07 37.98 0.05 37.97C0.03 37.97 0.02 37.95 0.01 37.94C0 37.92 0 37.9 0 37.89C-0.01 37.87 0 37.85 0.01 37.83L15.75 6.27Z" fill="#D0D0FB" fill-opacity="1.000000" fill-rule="nonzero"/>
	<path id="Vector" d="M18.89 38L28.32 18.95C28.33 18.99 28.38 18.97 28.47 18.9C29.66 18.89 30.84 18.89 32.01 18.89C33.22 18.89 34.49 19.19 35.81 19.8C40.14 21.79 42.25 26.73 40.85 31.29C39.86 34.5 37.16 37.05 33.82 37.78C33.16 37.92 32.14 38 30.77 38C26.85 37.99 22.89 37.99 18.89 38Z" fill="#212D9D" fill-opacity="1.000000" fill-rule="nonzero"/>
</svg>
